<?xml version="1.0" encoding="UTF-8"?>
<svg xmlns="http://www.w3.org/2000/svg" width="280" height="24" viewBox="0 0 280 24" fill="none">
  <path d="M20.712 0.433594V23.2392H17.0258V13.1374H4.25464V23.2392H0.568359V0.433594H4.25464V10.3035H17.0258V0.433594H20.712Z" fill="white"></path>
  <path d="M34.4978 23.2317H33.8398V7.46968V7.08086V0.433594H50.8506V3.26746H46.4764H46.2521H37.5336V10.1091H42.2368H42.4611H47.8522V12.8757H40.8311H40.5993H37.5336V13.3318V13.758V18.0575V18.4463V20.3978H41.4517H41.676H51.4114V23.2317H43.3434H43.1116H34.7222H34.4978Z" fill="white"></path>
  <path d="M85.4243 0.433594V23.2392H81.7679V6.22845L73.5729 16.3601L65.5049 6.36304V23.2392H62.3047V0.433594H65.4077L73.9318 11.2457L82.4858 0.433594H85.4243Z" fill="white"></path>
  <path d="M102.132 0.433594H98.4453V23.2392H102.132V0.433594Z" fill="white"></path>
  <path d="M115.328 23.2392H114.678V0.433594H117.549L124.077 8.3819L124.204 8.5464L131.128 16.9508V0.433594H134.358V23.2392H131.845L122.312 11.7766L122.185 11.6121L117.878 6.43034V18.9099M117.871 17.6088V23.2317H115.321" fill="white"></path>
  <path d="M166.158 11.1479V23.2311H164.169L163.683 18.2812C162.151 22.1918 158.786 23.6573 155.002 23.6573C148.273 23.6573 143.51 18.5429 143.51 11.8657C143.51 5.18856 148.28 0.00683594 155.331 0.00683594C160.722 0.00683594 164.311 2.84071 165.553 7.56632L162.517 8.50846C161.567 4.73246 159.025 2.87062 155.466 2.87062C150.568 2.87062 147.338 6.64663 147.338 11.8583C147.338 17.0699 150.568 20.7861 155.406 20.7861C158.965 20.7861 162.397 18.7971 163.115 13.8173H155.085V11.1479H166.188H166.158Z" fill="white"></path>
  <path d="M205.201 0.433594L197.948 23.2392H194.621L189.626 6.10134L184.601 23.2392H181.304L174.051 0.433594H178.066L183.225 17.9901L188.355 0.433594H191.293L196.482 18.0874L201.836 0.433594H205.201Z" fill="white"></path>
  <path d="M216.039 14.9306L215.747 15.5812H224.533L221.4 8.15627L221.303 7.92447L220.159 5.21771L216.144 14.6989L216.046 14.9232L216.039 14.9306ZM212.278 23.2304H208.98L214.072 11.6332L214.17 11.3715L218.97 0.424805H221.811L223.479 4.2008L223.576 4.42512L231.801 23.2229H227.786L225.729 18.3702H214.566L212.502 23.2229H212.278V23.2304Z" fill="white"></path>
  <path d="M246.171 13.9823V23.2317H242.485V14.0197L233.572 0.433594H238.006L244.668 11.0513L251.331 0.433594H255.054L246.171 13.9823Z" fill="white"></path>
  <path d="M270.194 23.658C265.423 23.658 261.475 21.6391 259.875 17.0406L262.941 15.7396C264.212 19.6128 267.12 20.9811 270.291 20.9811C273.461 20.9811 275.615 19.71 275.615 17.3023C275.615 14.3413 272.25 13.8478 269.349 13.2945C265.303 12.4795 260.825 10.9168 260.825 6.55006C260.825 2.63946 264.354 0 269.476 0C273.588 0 277.342 1.72724 278.942 5.57054L276.003 6.77438C274.762 3.776 272.347 2.63946 269.506 2.63946C266.5 2.63946 264.511 3.88069 264.511 5.99675C264.511 8.63621 267.778 9.02503 270.777 9.61573C274.366 10.2962 279.263 11.6047 279.263 16.7191C279.263 21.183 275.473 23.658 270.186 23.658" fill="white"></path>
</svg>
